<?xml version="1.0" encoding="utf-8"?>
<!-- Generator: Adobe Illustrator 16.0.0, SVG Export Plug-In . SVG Version: 6.00 Build 0)  -->
<!DOCTYPE svg PUBLIC "-//W3C//DTD SVG 1.1//EN" "http://www.w3.org/Graphics/SVG/1.1/DTD/svg11.dtd">
<svg version="1.1" id="Calque_1" xmlns="http://www.w3.org/2000/svg" xmlns:xlink="http://www.w3.org/1999/xlink" x="0px" y="0px"
	 width="566.93px" height="283.46px" viewBox="0 0 566.93 283.46" enable-background="new 0 0 566.93 283.46" xml:space="preserve">
<path fill="#FFFFFF" d="M214.447,157.74c0,2.731,0.153,4.299-1.643,4.299c-1.796,0,0.362,1.739,0.362,1.739l1.968-1.014
	l-0.191-5.272L214.447,157.74z"/>
<path d="M148.691,16.521c23.929,0,46.063,5.085,65.331,14.114c6.414,3.002,12.533,6.456,18.266,10.305
	c66.515,46.791,106.231,127.207,78.163,191.155c-20.656,43.108-84.168,34.873-161.76,34.873c-16.128,0-18.768-0.847-27.707-2.489
	C58.542,253.085,12.728,203.731,12.728,144.23C12.728,72.916,72.554,16.521,148.691,16.521z"/>
<g>
	<path fill="#FFFFFF" d="M64.231,166.55v-2.58c0-4.73-1.659-6.819-5.161-6.819c-2.334,0-3.379,1.166-4.423,4.116
		c-0.738,2.026-2.028,3.255-4.362,3.255c-2.273,0-3.564-1.474-3.564-3.992c0-3.872,4.362-6.391,12.963-6.391
		c9.216,0,12.78,3.012,12.78,10.813v13.456c0,3.502,0.675,5.224,2.089,5.224c0.799,0,1.474-0.246,2.15-0.8l0.921,1.781
		c-1.105,2.029-3.747,3.318-6.758,3.318c-3.748,0-5.776-2.396-5.776-6.573h-0.307c-2.334,4.239-6.267,6.512-11.059,6.512
		c-5.1,0-8.54-3.195-8.54-7.864c0-3.564,2.949-6.697,10.383-9.708L64.231,166.55z M64.231,169.806
		c-6.819,3.135-10.383,5.592-10.383,8.479c0,2.397,1.475,3.872,3.441,3.872c3.994,0,6.942-2.889,6.942-6.514V169.806z"/>
	<path fill="#FFFFFF" d="M87.499,181.329c2.069,0,4.322,1.521,4.322,3.445c0,1.833-2.253,3.31-4.322,3.31
		c-1.975,0-3.527-1.477-3.527-3.31C83.972,182.851,85.524,181.329,87.499,181.329z"/>
	<path fill="#FFFFFF" d="M134.702,181.848c6.328,0.923,10.26,5.101,10.26,10.815c0,6.941-5.898,10.628-16.958,10.628
		c-10.138,0-15.974-3.133-15.974-8.601c0-4.239,2.519-6.451,5.836-6.451c2.15,0,4.301,0.921,5.653,2.518
		c-2.151,0.43-3.625,2.091-3.625,4.118c0,3.256,3.01,5.099,8.601,5.099c6.083,0,9.216-1.967,9.216-5.837
		c0-2.766-1.904-4.977-5.346-5.407l-10.751-1.474c-4.547-0.613-6.82-2.703-6.82-6.083c0-3.318,2.273-5.53,6.267-6.328v-0.246
		c-3.686-1.475-6.329-5.528-6.329-9.707c0-6.144,5.407-10.753,12.596-10.753c3.501,0,7.065,1.169,9.461,3.012
		c3.749-2.336,5.468-3.012,7.496-3.012c3.134,0,5.223,1.536,5.223,3.811c0,1.719-1.167,2.947-2.888,2.947
		c-2.457,0-2.642-2.642-5.099-2.642c-0.799,0-1.72,0.615-2.458,1.659c0.798,1.413,1.106,2.95,1.106,5.038
		c0,6.146-3.749,10.69-13.025,11.736c-3.872,0.431-5.223,0.98-5.223,2.273c0,0.983,0.921,1.534,2.765,1.72
		C129.047,181.05,131.199,181.294,134.702,181.848z M131.813,165.261c0-5.039-1.536-7.925-4.239-7.925
		c-2.765,0-4.547,3.008-4.547,7.802c0,4.853,1.844,8.049,4.608,8.049C130.277,173.187,131.813,170.237,131.813,165.261z"/>
	<path fill="#FFFFFF" d="M132.646,188.168v-6.823h105.097v6.823H132.646z"/>
	<path fill="#FFFFFF" d="M241.327,178.1c0,6.514,0.614,7.436,5.345,7.62v2.457h-19.354c0,0,0-0.069,0-0.182c0-0.114,0-0.273,0-0.454
		c0.35-3.533,4.935-2.617,5.375-6.382c0.009-0.107,0.019-0.216,0.027-0.328c0.048-0.671,0.067-1.435,0.067-2.301v-25.373
		c0-4.732-0.185-7.928-0.432-9.032c-0.429-2.028-1.535-2.521-5.283-2.521v-2.088l14.255-2.336V178.1z"/>
	<path fill="#FFFFFF" d="M272.119,181.619c6.329,0.923,10.26,5.099,10.26,10.814c0,6.941-5.898,10.629-16.957,10.629
		c-10.138,0-15.975-3.134-15.975-8.602c0-4.239,2.519-6.451,5.837-6.451c2.15,0,4.301,0.921,5.653,2.519
		c-2.151,0.429-3.625,2.089-3.625,4.118c0,3.255,3.011,5.099,8.602,5.099c6.082,0,9.215-1.967,9.215-5.838
		c0-2.765-1.903-4.977-5.345-5.407l-10.753-1.474c-4.545-0.614-6.819-2.702-6.819-6.082c0-3.318,2.273-5.531,6.268-6.329v-0.246
		c-3.687-1.474-6.33-5.528-6.33-9.707c0-6.144,5.407-10.752,12.596-10.752c3.502,0,7.066,1.167,9.463,3.012
		c3.746-2.336,5.467-3.012,7.496-3.012c3.133,0,5.221,1.535,5.221,3.811c0,1.719-1.167,2.947-2.888,2.947
		c-2.457,0-2.642-2.642-5.099-2.642c-0.799,0-1.721,0.614-2.458,1.658c0.799,1.413,1.106,2.949,1.106,5.038
		c0,6.146-3.747,10.69-13.025,11.736c-3.871,0.431-5.223,0.982-5.223,2.273c0,0.984,0.921,1.534,2.764,1.72
		C266.465,180.82,268.617,181.066,272.119,181.619z M269.23,165.031c0-5.038-1.536-7.925-4.238-7.925
		c-2.766,0-4.547,3.009-4.547,7.802c0,4.854,1.844,8.048,4.607,8.048C267.694,172.956,269.23,170.008,269.23,165.031z"/>
	<path fill="#FFFFFF" d="M232.805,178.371c0.02,2.274,0.001,2.942-2.311,2.962c-2.312,0.019,0.19,1.451,0.19,1.451l3.687,0.154
		l-0.706-4.93L232.805,178.371z"/>
</g>
<path d="M332.798,181.329c2.068,0,4.321,1.521,4.321,3.445c0,1.833-2.253,3.31-4.321,3.31c-1.977,0-3.527-1.477-3.527-3.31
	C329.271,182.851,330.821,181.329,332.798,181.329z"/>
<g>
	<path d="M366.273,178.528c0-1.567-0.592-2.785-1.771-3.652c-1.182-0.866-3.239-1.614-6.176-2.242
		c-2.935-0.626-5.265-1.379-6.989-2.256c-1.723-0.878-2.998-1.923-3.823-3.134c-0.826-1.211-1.238-2.654-1.238-4.325
		c0-2.779,1.175-5.13,3.526-7.053c2.351-1.921,5.354-2.884,9.012-2.884c3.843,0,6.962,0.992,9.355,2.979
		c2.393,1.984,3.59,4.523,3.59,7.616h-5.832c0-1.588-0.674-2.957-2.02-4.105c-1.35-1.149-3.047-1.724-5.094-1.724
		c-2.111,0-3.762,0.459-4.953,1.379c-1.191,0.919-1.787,2.12-1.787,3.603c0,1.401,0.554,2.456,1.662,3.167
		c1.106,0.711,3.107,1.389,6.001,2.037c2.895,0.647,5.24,1.42,7.037,2.319c1.798,0.898,3.129,1.979,3.995,3.244
		c0.867,1.265,1.303,2.806,1.303,4.622c0,3.031-1.213,5.459-3.637,7.288c-2.423,1.829-5.569,2.742-9.434,2.742
		c-2.716,0-5.12-0.48-7.209-1.442c-2.09-0.96-3.725-2.303-4.905-4.027c-1.18-1.723-1.771-3.588-1.771-5.595h5.799
		c0.105,1.943,0.883,3.484,2.335,4.624s3.37,1.707,5.752,1.707c2.193,0,3.954-0.442,5.281-1.331
		C365.61,181.197,366.273,180.011,366.273,178.528z"/>
	<path d="M393.229,183.416c2.068,0,3.876-0.626,5.423-1.88c1.545-1.253,2.401-2.821,2.569-4.7h5.485
		c-0.105,1.941-0.773,3.791-2.007,5.546c-1.232,1.756-2.879,3.157-4.936,4.201c-2.058,1.043-4.238,1.566-6.535,1.566
		c-4.619,0-8.291-1.54-11.017-4.622c-2.728-3.083-4.092-7.299-4.092-12.647v-0.971c0-3.302,0.607-6.238,1.819-8.808
		c1.211-2.571,2.95-4.566,5.218-5.987c2.269-1.421,4.947-2.132,8.04-2.132c3.803,0,6.962,1.141,9.479,3.417
		c2.52,2.277,3.862,5.234,4.029,8.871h-5.485c-0.168-2.195-0.998-3.997-2.492-5.408c-1.494-1.409-3.337-2.114-5.531-2.114
		c-2.946,0-5.23,1.06-6.849,3.181c-1.62,2.12-2.43,5.188-2.43,9.198v1.098c0,3.907,0.805,6.917,2.414,9.027
		C387.941,182.361,390.24,183.416,393.229,183.416z"/>
	<path d="M413.256,144.614c0-0.939,0.287-1.734,0.863-2.382c0.574-0.647,1.426-0.972,2.554-0.972c1.129,0,1.984,0.324,2.57,0.972
		c0.584,0.647,0.877,1.442,0.877,2.382c0,0.94-0.293,1.724-0.877,2.351c-0.586,0.627-1.441,0.941-2.57,0.941
		c-1.128,0-1.979-0.314-2.554-0.941C413.543,146.338,413.256,145.555,413.256,144.614z M419.525,187.522h-5.799V153.61h5.799
		V187.522z"/>
	<path d="M442.875,188.149c-4.597,0-8.337-1.51-11.22-4.53c-2.885-3.018-4.326-7.057-4.326-12.113v-1.065
		c0-3.364,0.642-6.368,1.929-9.012c1.283-2.642,3.081-4.711,5.391-6.205c2.307-1.495,4.811-2.241,7.506-2.241
		c4.408,0,7.836,1.454,10.281,4.356c2.444,2.905,3.666,7.064,3.666,12.475v2.414h-22.974c0.083,3.344,1.06,6.045,2.93,8.103
		s4.247,3.086,7.131,3.086c2.048,0,3.782-0.417,5.203-1.253c1.42-0.835,2.664-1.943,3.73-3.322l3.541,2.759
		C452.821,185.966,448.559,188.149,442.875,188.149z M442.154,157.748c-2.341,0-4.305,0.851-5.893,2.553
		c-1.588,1.703-2.569,4.092-2.945,7.163h16.987v-0.439c-0.168-2.946-0.961-5.229-2.383-6.849
		C446.5,158.557,444.577,157.748,442.154,157.748z"/>
	<path d="M468.295,153.61l0.188,4.262c2.591-3.26,5.976-4.89,10.154-4.89c7.167,0,10.782,4.044,10.846,12.13v22.41h-5.798v-22.441
		c-0.022-2.445-0.581-4.251-1.677-5.423c-1.099-1.17-2.807-1.754-5.126-1.754c-1.88,0-3.532,0.501-4.952,1.503
		c-1.421,1.004-2.529,2.32-3.322,3.95v24.165h-5.798V153.61H468.295z"/>
	<path d="M511.83,183.416c2.068,0,3.875-0.626,5.422-1.88c1.545-1.253,2.402-2.821,2.569-4.7h5.485
		c-0.105,1.941-0.773,3.791-2.006,5.546c-1.233,1.756-2.879,3.157-4.936,4.201c-2.059,1.043-4.238,1.566-6.535,1.566
		c-4.618,0-8.291-1.54-11.017-4.622c-2.728-3.083-4.091-7.299-4.091-12.647v-0.971c0-3.302,0.605-6.238,1.817-8.808
		c1.212-2.571,2.951-4.566,5.22-5.987c2.267-1.421,4.945-2.132,8.039-2.132c3.802,0,6.962,1.141,9.48,3.417
		c2.518,2.277,3.86,5.234,4.027,8.871h-5.485c-0.167-2.195-0.998-3.997-2.491-5.408c-1.494-1.409-3.338-2.114-5.531-2.114
		c-2.947,0-5.229,1.06-6.849,3.181c-1.62,2.12-2.429,5.188-2.429,9.198v1.098c0,3.907,0.803,6.917,2.412,9.027
		C506.543,182.361,508.841,183.416,511.83,183.416z"/>
	<path d="M545.899,188.149c-4.598,0-8.337-1.51-11.221-4.53c-2.884-3.018-4.325-7.057-4.325-12.113v-1.065
		c0-3.364,0.642-6.368,1.929-9.012c1.283-2.642,3.081-4.711,5.39-6.205c2.308-1.495,4.812-2.241,7.507-2.241
		c4.407,0,7.836,1.454,10.28,4.356c2.445,2.905,3.667,7.064,3.667,12.475v2.414h-22.974c0.082,3.344,1.059,6.045,2.929,8.103
		c1.871,2.058,4.248,3.086,7.132,3.086c2.048,0,3.782-0.417,5.202-1.253c1.421-0.835,2.665-1.943,3.73-3.322l3.541,2.759
		C555.845,185.966,551.582,188.149,545.899,188.149z M545.179,157.748c-2.341,0-4.306,0.851-5.893,2.553
		c-1.589,1.703-2.57,4.092-2.946,7.163h16.987v-0.439c-0.168-2.946-0.961-5.229-2.383-6.849
		C549.524,158.557,547.602,157.748,545.179,157.748z"/>
</g>
</svg>
